<svg width="75" height="75" viewBox="0 0 75 75" fill="none" xmlns="http://www.w3.org/2000/svg">
<circle cx="37.5" cy="37.5" r="37.5" fill="#77ADCB"/>
<path d="M33.3846 57.4644V46.6997C33.3846 45.9473 34.1538 45.1795 34.9231 45.1795H41.0769C41.8462 45.1795 42.6154 45.9473 42.6154 46.7151V57.4644C42.6154 57.8717 42.7775 58.2622 43.066 58.5502C43.3545 58.8382 43.7458 59 44.1538 59H56.4615C56.8696 59 57.2609 58.8382 57.5494 58.5502C57.8379 58.2622 58 57.8717 58 57.4644V35.9658C58.0004 35.764 57.9609 35.5641 57.8838 35.3775C57.8067 35.191 57.6935 35.0214 57.5508 34.8785L53.3846 30.7232V20.6096C53.3846 20.2023 53.2225 19.8117 52.934 19.5237C52.6455 19.2358 52.2542 19.074 51.8462 19.074H48.7692C48.3612 19.074 47.9699 19.2358 47.6814 19.5237C47.3929 19.8117 47.2308 20.2023 47.2308 20.6096V24.5807L39.0892 16.4511C38.9463 16.3081 38.7766 16.1947 38.5896 16.1173C38.4027 16.0398 38.2024 16 38 16C37.7976 16 37.5973 16.0398 37.4104 16.1173C37.2234 16.1947 37.0537 16.3081 36.9108 16.4511L18.4492 34.8785C18.3065 35.0214 18.1933 35.191 18.1162 35.3775C18.0391 35.5641 17.9996 35.764 18 35.9658V57.4644C18 57.8717 18.1621 58.2622 18.4506 58.5502C18.7391 58.8382 19.1304 59 19.5385 59H31.8462C32.2542 59 32.6455 58.8382 32.934 58.5502C33.2225 58.2622 33.3846 57.8717 33.3846 57.4644Z" fill="white"/>
</svg>
